<?xml version="1.0" encoding="UTF-8"?>
<svg version="1.1" xmlns="http://www.w3.org/2000/svg" width="512" height="512">
<path d="M0 0 C1.1205308 -0.00623996 2.24106159 -0.01247993 3.39554787 -0.01890898 C7.12247856 -0.03476922 10.8487489 -0.02226144 14.57568359 -0.00964355 C17.25895067 -0.01506776 19.94217339 -0.02204827 22.62542725 -0.03088379 C29.14018029 -0.04861201 35.65474835 -0.04485461 42.16950846 -0.03323323 C47.46712663 -0.02417663 52.76469319 -0.0229845 58.06231689 -0.02732849 C58.81809953 -0.02794142 59.57388217 -0.02855436 60.35256732 -0.02918586 C61.88822541 -0.03046484 63.42388349 -0.0317617 64.95954156 -0.03307623 C79.33828721 -0.04446533 93.71693062 -0.0313946 108.09565949 -0.00987476 C120.41652599 0.00799472 132.7372417 0.00489014 145.05810547 -0.0135498 C159.38759274 -0.0349861 173.71699055 -0.04336685 188.04649162 -0.03110075 C189.57630283 -0.02982664 191.10611406 -0.02856915 192.63592529 -0.02732849 C193.76478557 -0.02640284 193.76478557 -0.02640284 194.9164511 -0.02545848 C200.20386452 -0.02201385 205.4912209 -0.02781475 210.77862549 -0.0372467 C217.22774719 -0.0484988 223.67667431 -0.04535957 230.12577391 -0.02412373 C233.41232244 -0.0136561 236.69848263 -0.0115934 239.98503876 -0.02272034 C243.55642666 -0.03369459 247.1269114 -0.01988787 250.69824219 0 C251.72481745 -0.00892289 252.75139271 -0.01784577 253.80907631 -0.02703905 C265.03697498 0.09375502 274.21285836 3.74080285 282.34912109 11.50793457 C293.36471102 23.04703769 293.93961412 35.28693977 293.86669922 50.39074707 C293.87212751 52.28583309 293.87925411 54.18091488 293.88793945 56.07598877 C293.90609166 61.19585373 293.89913885 66.31539434 293.88642311 71.43526459 C293.87625332 76.8086175 293.8856998 82.18194377 293.89196777 87.55529785 C293.89923262 96.57666987 293.88968702 105.59791063 293.87060547 114.6192627 C293.84883903 125.0297987 293.85589122 135.44002128 293.87791109 145.8505497 C293.89609825 154.80970747 293.89860721 163.76877123 293.88815641 172.72794151 C293.88193971 178.06971749 293.88103553 183.41134643 293.89430237 188.75311279 C293.90590857 193.77658922 293.89774831 198.79966392 293.87472534 203.82309723 C293.86946366 205.66001979 293.87090817 207.49697651 293.879776 209.33388519 C293.94187905 223.51177872 292.58845477 234.78197909 282.34912109 245.50793457 C270.31961468 256.99167887 257.51488805 257.07364741 241.80615234 256.89855957 C239.82647781 256.8910869 237.84679582 256.88539882 235.86711121 256.88140869 C230.69012553 256.86623313 225.51359822 256.82702201 220.33679199 256.78259277 C214.10753601 256.73421671 207.87812563 256.71606755 201.64873505 256.69277954 C192.21521289 256.65416531 182.78269387 256.57745527 173.34912109 256.50793457 C173.34912109 272.34793457 173.34912109 288.18793457 173.34912109 304.50793457 C178.29912109 304.50793457 183.24912109 304.50793457 188.34912109 304.50793457 C195.10301965 306.75923409 199.31294308 310.65002216 203.34912109 316.50793457 C205.34912109 321.50793457 205.34912109 321.50793457 205.34912109 336.50793457 C234.38912109 336.50793457 263.42912109 336.50793457 293.34912109 336.50793457 C293.19080001 311.67621801 293.19080001 311.67621801 292.98876953 286.84484863 C292.97070312 282.03869629 292.97070312 282.03869629 292.96734619 279.78765869 C292.96120975 278.21778834 292.94715332 276.64793668 292.92681885 275.07818604 C292.89753121 272.69799121 292.89349705 270.31894669 292.89501953 267.93859863 C292.8806271 267.24099552 292.86623466 266.54339241 292.8514061 265.82464981 C292.87884445 262.61945307 293.19046601 260.74515742 294.98687744 258.05914307 C298.04852281 256.04866024 299.96772761 256.1000479 303.59912109 256.25793457 C304.67677734 256.29402832 305.75443359 256.33012207 306.86474609 256.36730957 C307.68458984 256.41371582 308.50443359 256.46012207 309.34912109 256.50793457 C309.34023865 255.46445862 309.3313562 254.42098267 309.32220459 253.34588623 C309.24115226 243.51680876 309.18117181 233.687799 309.14187241 223.85846329 C309.12098895 218.80495537 309.09265738 213.75171702 309.04736328 208.69836426 C309.0039327 203.82245989 308.9799897 198.94681497 308.96961212 194.07073212 C308.96221574 192.20955063 308.94777243 190.34838349 308.92620087 188.48731232 C308.89720366 185.88221953 308.8931635 183.27820159 308.89501953 180.67297363 C308.88063843 179.9018927 308.86625732 179.13081177 308.85144043 178.33636475 C308.87818102 174.87242926 309.08040662 172.87750496 311.14312744 170.04058838 C313.80681972 168.18994021 315.98315235 167.75466846 319.22021484 167.94543457 C323.57331243 169.09561081 326.28755248 172.36593946 329.34912109 175.50793457 C330.33055168 176.48094808 331.31373254 177.45219826 332.29833984 178.42199707 C335.00370501 181.09628098 337.68142167 183.79610042 340.34912109 186.50793457 C343.48317777 185.1219659 345.56746291 183.51722301 347.95068359 181.06652832 C348.60552734 180.40072754 349.26037109 179.73492676 349.93505859 179.0489502 C350.60794922 178.35479004 351.28083984 177.66062988 351.97412109 176.94543457 C353.31823979 175.5669492 354.66449263 174.19054056 356.01318359 172.81652832 C356.60566895 172.20607666 357.1981543 171.595625 357.80859375 170.9666748 C360.61365245 168.3105376 363.31798302 167.97522807 367.14990234 168.05090332 C371.58884399 168.9733832 374.28365384 172.3619384 377.34912109 175.50793457 C378.33055168 176.48094808 379.31373254 177.45219826 380.29833984 178.42199707 C383.00370501 181.09628098 385.68142167 183.79610042 388.34912109 186.50793457 C391.48317777 185.1219659 393.56746291 183.51722301 395.95068359 181.06652832 C396.60552734 180.40072754 397.26037109 179.73492676 397.93505859 179.0489502 C398.60794922 178.35479004 399.28083984 177.66062988 399.97412109 176.94543457 C401.31823979 175.5669492 402.66449263 174.19054056 404.01318359 172.81652832 C404.60566895 172.20607666 405.1981543 171.595625 405.80859375 170.9666748 C408.72478087 168.20530903 411.35880815 168.29827502 415.27880859 168.08215332 C418.40644889 168.725385 419.41626688 169.97993545 421.34912109 172.50793457 C421.72319433 175.36196957 421.85636507 177.8236022 421.80322266 180.67297363 C421.80380676 181.49285767 421.80439087 182.3127417 421.80499268 183.1574707 C421.80220939 185.86326668 421.77110658 188.56795642 421.73974609 191.27355957 C421.73228456 193.15113727 421.72659121 195.02872276 421.72259521 196.90631104 C421.70733201 201.84502715 421.66804422 206.78327177 421.6237793 211.72180176 C421.58284144 216.76242698 421.56458737 221.80312848 421.54443359 226.84387207 C421.50155068 236.73209992 421.43329097 246.61997802 421.34912109 256.50793457 C422.16896484 256.46152832 422.98880859 256.41512207 423.83349609 256.36730957 C424.91115234 256.33121582 425.98880859 256.29512207 427.09912109 256.25793457 C428.16646484 256.21152832 429.23380859 256.16512207 430.33349609 256.11730957 C433.34912109 256.50793457 433.34912109 256.50793457 435.71136475 258.05914307 C437.9013717 261.33366582 437.88182833 264.13282919 437.80322266 267.93859863 C437.80380676 268.6804541 437.80439087 269.42230957 437.80499268 270.18664551 C437.80221134 272.63276359 437.77111895 275.07765504 437.73974609 277.52355957 C437.73228383 279.22177464 437.72659083 280.91999833 437.72259521 282.6182251 C437.70733761 287.08349467 437.66805499 291.5482421 437.6237793 296.01330566 C437.58282916 300.57133928 437.56458477 305.12945744 437.54443359 309.68762207 C437.50156063 318.62795538 437.43330795 327.56790152 437.34912109 336.50793457 C438.16896484 336.46152832 438.98880859 336.41512207 439.83349609 336.36730957 C440.91115234 336.33121582 441.98880859 336.29512207 443.09912109 336.25793457 C444.16646484 336.21152832 445.23380859 336.16512207 446.33349609 336.11730957 C450.12948045 336.60901739 451.02071597 337.52095782 453.34912109 340.50793457 C453.85248566 343.36279297 453.85248566 343.36279297 453.85705566 346.73254395 C453.87397461 348.6505481 453.87397461 348.6505481 453.89123535 350.6072998 C453.88345833 352.02209699 453.87526566 353.43689194 453.86669922 354.85168457 C453.87212001 356.34330936 453.87924243 357.8349288 453.88793945 359.32653809 C453.90618113 363.37616085 453.89910199 367.42537618 453.88642311 371.4750061 C453.87629974 375.71190493 453.88568694 379.94876875 453.89196777 384.18566895 C453.89924613 391.30096707 453.88965161 398.41609915 453.87060547 405.53137207 C453.84883628 413.75896257 453.85588753 421.9861566 453.87791109 430.21373749 C453.8960598 437.27627711 453.89862603 444.33869734 453.88815641 451.40125275 C453.88191854 455.62006632 453.88109383 459.8386935 453.89430237 464.05749512 C453.90585265 468.0237383 453.89785071 471.98947006 453.87472534 475.95565796 C453.86943377 477.41172435 453.87095975 478.86783374 453.879776 480.32388306 C453.89069544 482.31034819 453.8745781 484.29690733 453.85705566 486.2833252 C453.85479351 487.95135193 453.85479351 487.95135193 453.85248566 489.65307617 C453.2044022 493.32871532 452.32883442 494.27696398 449.34912109 496.50793457 C446.51813188 496.89991082 444.07677394 497.04566005 441.24682617 497.01129913 C440.41948282 497.0171129 439.59213947 497.02292666 438.73972511 497.0289166 C435.94907594 497.04359121 433.15929607 497.02959678 430.36865234 497.01586914 C428.35514372 497.02047511 426.34163845 497.02682596 424.32814026 497.03477812 C418.78084122 497.05153634 413.23381606 497.04319561 407.68651581 497.03083324 C401.70961108 497.02181158 395.73275462 497.03573812 389.75585938 497.04675293 C378.71912041 497.06354274 367.68245713 497.06204391 356.64571762 497.05110706 C346.4506513 497.04105358 336.25561714 497.03841393 326.06054688 497.04319763 C325.3848651 497.04350317 324.70918333 497.04380871 324.01302636 497.04412351 C321.27036627 497.04536882 318.52770621 497.04664242 315.78504616 497.04796257 C290.04516084 497.06020466 264.30533141 497.04909508 238.56545472 497.02757498 C215.6860219 497.00859187 192.80667813 497.01029035 169.92724609 497.02941895 C144.23510878 497.05082722 118.54302085 497.05933654 92.85087585 497.04696989 C90.11314902 497.04568698 87.37542217 497.04443562 84.63769531 497.04319763 C83.96357357 497.04288132 83.28945183 497.04256501 82.59490216 497.04223912 C72.40505145 497.03768498 62.2152364 497.04301822 52.02539062 497.05311584 C40.44163426 497.06453738 28.85796266 497.06134054 17.2742157 497.03999287 C11.35985338 497.02945386 5.44567216 497.02540911 -0.46868896 497.03858948 C-5.87703528 497.05046022 -11.2850317 497.04403899 -16.69334602 497.02267927 C-18.65559605 497.01819056 -20.61787531 497.02052988 -22.58010674 497.03018242 C-25.23669287 497.04225373 -27.89206262 497.02996658 -30.54858398 497.01129913 C-31.70548768 497.02534613 -31.70548768 497.02534613 -32.88576317 497.0396769 C-36.3685452 496.99037906 -38.30121104 496.76973785 -41.12581205 494.65490294 C-43.18773749 491.75215236 -43.15400421 489.8294986 -43.15881348 486.2833252 C-43.17009277 485.00465576 -43.18137207 483.72598633 -43.19299316 482.40856934 C-43.18521614 480.99377215 -43.17702347 479.5789772 -43.16845703 478.16418457 C-43.17387782 476.67255978 -43.18100025 475.18094034 -43.18969727 473.68933105 C-43.20793894 469.63970829 -43.2008598 465.59049296 -43.18818092 461.54086304 C-43.17805755 457.30396421 -43.18744475 453.06710039 -43.19372559 448.8302002 C-43.20100394 441.71490207 -43.19140942 434.59976999 -43.17236328 427.48449707 C-43.1505941 419.25690657 -43.15764534 411.02971254 -43.1796689 402.80213165 C-43.19781761 395.73959203 -43.20038384 388.6771718 -43.18991423 381.61461639 C-43.18367635 377.39580282 -43.18285165 373.17717564 -43.19606018 368.95837402 C-43.20761046 364.99213084 -43.19960852 361.02639908 -43.17648315 357.06021118 C-43.17119159 355.60414479 -43.17271756 354.1480354 -43.18153381 352.69198608 C-43.19245325 350.70552095 -43.17633591 348.71896181 -43.15881348 346.73254395 C-43.15730537 345.62052612 -43.15579727 344.5085083 -43.15424347 343.36279297 C-42.5301263 339.82307987 -41.50469383 338.6389518 -38.65087891 336.50793457 C-35.79684391 336.13386133 -33.33521128 336.00069059 -30.48583984 336.05383301 C-29.66595581 336.0532489 -28.84607178 336.05266479 -28.00134277 336.05206299 C-25.2955468 336.05484627 -22.59085705 336.08594908 -19.88525391 336.11730957 C-18.00767621 336.12477111 -16.13009071 336.13046445 -14.25250244 336.13446045 C-9.31378632 336.14972366 -4.37554171 336.18901144 0.56298828 336.23327637 C5.6036135 336.27421422 10.644315 336.29246829 15.68505859 336.31262207 C25.57328644 336.35550498 35.46116454 336.42376469 45.34912109 336.50793457 C45.33171875 335.4773291 45.31431641 334.44672363 45.29638672 333.3848877 C45.28231218 332.01965741 45.2686627 330.6544227 45.25537109 329.28918457 C45.24280273 328.61145996 45.23023437 327.93373535 45.21728516 327.23547363 C45.16735063 320.39444313 46.55212025 316.43923817 51.22021484 311.54699707 C59.71217193 303.68110109 64.55610379 304.50793457 77.34912109 304.50793457 C77.34912109 288.66793457 77.34912109 272.82793457 77.34912109 256.50793457 C71.05205078 256.55434082 64.75498047 256.60074707 58.26708984 256.64855957 C54.26121383 256.66901446 50.25540284 256.68827141 46.24951172 256.70324707 C39.90082307 256.72709413 33.55236671 256.75520717 27.20385742 256.80969238 C22.08153562 256.85337542 16.95946317 256.87711895 11.83696938 256.88744354 C9.88946932 256.89479477 7.94198183 256.90914937 5.99458885 256.9308548 C-8.76035205 257.0886675 -20.45452614 256.19632426 -31.65087891 245.50793457 C-42.66646884 233.96883145 -43.24137193 221.72892937 -43.16845703 206.62512207 C-43.17388532 204.73003605 -43.18101193 202.83495426 -43.18969727 200.93988037 C-43.20784947 195.82001541 -43.20089666 190.7004748 -43.18818092 185.58060455 C-43.17801114 180.20725164 -43.18745761 174.83392537 -43.19372559 169.46057129 C-43.20099043 160.43919927 -43.19144483 151.41795851 -43.17236328 142.39660645 C-43.15059684 131.98607044 -43.15764903 121.57584786 -43.1796689 111.16531944 C-43.19785606 102.20616167 -43.20036502 93.24709791 -43.18991423 84.28792763 C-43.18369752 78.94615165 -43.18279334 73.60452271 -43.19606018 68.26275635 C-43.20766638 63.23927992 -43.19950612 58.21620522 -43.17648315 53.19277191 C-43.17122147 51.35584935 -43.17266598 49.51889264 -43.18153381 47.68198395 C-43.24363686 33.50409042 -41.89021259 22.23389005 -31.65087891 11.50793457 C-22.47908654 2.75225377 -12.46902777 -0.10837951 0 0 Z " fill="#000000" transform="translate(50.65087890625,7.4920654296875)"/>
<path d="M0 0 C153.12 0 306.24 0 464 0 C464 42.24 464 84.48 464 128 C310.88 128 157.76 128 0 128 C0 85.76 0 43.52 0 0 Z " fill="#4C5C78" transform="translate(24,360)"/>
<path d="M0 0 C1.08414696 -0.00382555 2.16829392 -0.00765109 3.28529382 -0.01159257 C6.92480304 -0.02192645 10.56415462 -0.01792959 14.20367432 -0.01396179 C16.81046698 -0.0183081 19.41725837 -0.02349098 22.02404785 -0.02944946 C28.37446972 -0.04220078 34.72484931 -0.04398953 41.07528183 -0.0416492 C46.23861074 -0.03986595 51.40192683 -0.04161583 56.56525421 -0.04587364 C57.66770941 -0.04676643 57.66770941 -0.04676643 58.79243644 -0.04767724 C60.28557919 -0.04888901 61.77872194 -0.05010314 63.27186468 -0.05131962 C77.27660701 -0.06219734 91.28132526 -0.06003188 105.28606895 -0.05393478 C118.0898903 -0.04876841 130.8936355 -0.06001322 143.69744179 -0.07903299 C156.84986507 -0.0984205 170.00225236 -0.1066656 183.15469003 -0.10290974 C190.53649923 -0.1009987 197.91824367 -0.10347559 205.3000412 -0.11762428 C212.24395072 -0.13079903 219.18770559 -0.12826555 226.13161469 -0.11521339 C228.67890474 -0.11284623 231.22620548 -0.11558727 233.77348328 -0.12383652 C237.25378804 -0.13429363 240.73358075 -0.12621086 244.21386719 -0.11352539 C245.21923326 -0.12089968 246.22459934 -0.12827396 247.26043105 -0.13587171 C254.24086144 -0.08243667 260.7454115 0.80266146 266.63043213 4.80366516 C267.13961182 5.34636047 267.6487915 5.88905579 268.17340088 6.44819641 C268.69547119 6.9780011 269.2175415 7.50780579 269.75543213 8.05366516 C275.82209942 16.3934876 275.91602685 23.71831263 275.81500244 33.67280579 C275.81377571 35.25572419 275.81431345 36.83864478 275.81646347 38.42156219 C275.81736301 42.64374304 275.79425447 46.86546638 275.76602173 51.08753967 C275.74316723 55.05575431 275.74216524 59.02386016 275.73931885 62.99214172 C275.71836632 74.58172006 275.66252136 86.17121409 275.61090088 97.76069641 C275.52840088 123.66569641 275.44590088 149.57069641 275.36090088 176.26069641 C175.04090088 176.26069641 74.72090088 176.26069641 -28.63909912 176.26069641 C-28.72159912 150.35569641 -28.80409912 124.45069641 -28.88909912 97.76069641 C-28.92551514 89.5848175 -28.96193115 81.4089386 -28.99945068 72.98530579 C-29.01751709 62.99214172 -29.01751709 62.99214172 -29.02087402 58.31208801 C-29.02459672 55.04732869 -29.03957061 51.78283024 -29.06140137 48.5181427 C-29.08890827 44.34916673 -29.09705091 40.18056819 -29.09138823 36.0115099 C-29.09257171 34.48439832 -29.10046236 32.95727308 -29.11595964 31.43023968 C-29.20649534 22.07183188 -28.9401372 15.10802018 -22.45550537 7.79975891 C-21.33982178 6.85229797 -21.33982178 6.85229797 -20.20159912 5.88569641 C-19.46038818 5.23858704 -18.71917725 4.59147766 -17.95550537 3.92475891 C-12.18825797 -0.2183227 -6.86748539 -0.02558881 0 0 Z " fill="#EAF6FD" transform="translate(52.63909912109375,23.739303588867188)"/>
<path d="M0 0 C0.93587779 -0.00638882 1.87175557 -0.01277764 2.83599329 -0.01936007 C5.97390081 -0.03462807 9.11054941 -0.01413625 12.24841309 0.00622559 C14.49717121 0.00272495 16.74592687 -0.00293298 18.99467468 -0.0105896 C25.10418762 -0.02485526 31.21325146 -0.00775818 37.32272148 0.01569557 C43.71189088 0.03577889 50.10104117 0.02992632 56.49023438 0.02758789 C67.22042909 0.02764149 77.95040738 0.04728997 88.68054199 0.07946777 C99.71932389 0.11255884 110.75792243 0.12672602 121.79675293 0.1204834 C135.10096816 0.11299667 148.40506614 0.12036879 161.70927429 0.14213562 C166.79051337 0.15031714 171.87171203 0.15301778 176.95295715 0.15144348 C182.93494573 0.15056549 188.91671474 0.16475806 194.8986454 0.19067001 C197.09606677 0.1978412 199.29351149 0.19991088 201.490942 0.19655228 C204.48663238 0.19284651 207.48167875 0.207554 210.47729492 0.22705078 C211.35034728 0.22172286 212.22339963 0.21639493 213.12290812 0.21090555 C217.80575476 0.26361804 220.94440925 0.56040605 224.73864746 3.62145996 C226.30920952 6.76258407 225.89483563 10.12274027 225.89978027 13.57189941 C225.90474518 14.3932135 225.90971008 15.21452759 225.91482544 16.06072998 C225.92946358 18.78540883 225.93625216 21.51002945 225.94177246 24.23474121 C225.94752301 26.12562563 225.95328075 28.01651003 225.95904541 29.90739441 C225.96956041 33.87613192 225.97539966 37.84484915 225.97888184 41.81359863 C225.98436447 46.89803513 226.00838548 51.98220353 226.03685379 57.06655598 C226.05548279 60.97420533 226.06068593 64.8817902 226.06221771 68.78948021 C226.0652447 70.66376395 226.07327478 72.53804655 226.08640289 74.41228676 C226.10346721 77.03601041 226.10158216 79.65908021 226.09509277 82.28283691 C226.10430756 83.05653122 226.11352234 83.83022552 226.12301636 84.62736511 C226.08826553 89.11499709 225.60925884 92.10248055 222.73864746 95.62145996 C218.73431995 96.9562358 214.88640531 96.7660151 210.71107483 96.76190186 C209.30876308 96.76635854 209.30876308 96.76635854 207.87812179 96.77090526 C204.73209339 96.77960661 201.58610297 96.78110171 198.44006348 96.78259277 C196.18998127 96.78721985 193.93989984 96.79224436 191.68981934 96.79763794 C185.56802311 96.81077268 179.44623786 96.81720874 173.32442975 96.8216486 C169.50298174 96.82457697 165.68153675 96.82868128 161.86009026 96.83315277 C151.28200309 96.84526174 140.70391855 96.85564431 130.12582493 96.85902786 C129.44885356 96.85924743 128.7718822 96.85946699 128.07439655 96.85969321 C127.05650112 96.86002063 127.05650112 96.86002063 126.01804215 96.86035466 C124.64292816 96.86079813 123.26781418 96.86124469 121.8927002 96.86169434 C120.86954264 96.86202648 120.86954264 96.86202648 119.82571524 96.86236534 C108.7675843 96.86631528 97.70951918 96.8837759 86.65141369 96.90705386 C75.30144984 96.93075366 63.95153017 96.94297093 52.60153717 96.94439578 C46.2275656 96.94544599 39.85368689 96.95139983 33.47973824 96.96921539 C27.48715208 96.98563918 21.49472917 96.98787934 15.5021286 96.97907639 C13.29943595 96.97830301 11.09673473 96.98268802 8.89406395 96.99253464 C5.89358022 97.00516407 2.89368261 96.9994265 -0.10679626 96.98895264 C-0.9841257 96.99700904 -1.86145513 97.00506545 -2.76537031 97.01336598 C-6.2878502 96.98448783 -8.6260685 96.95951442 -11.77101231 95.28599167 C-15.03136471 91.64456816 -14.42898567 87.15590503 -14.45422363 82.55749512 C-14.46240112 81.736035 -14.47057861 80.91457489 -14.47900391 80.06822205 C-14.50382312 77.34899624 -14.52036315 74.62982244 -14.53479004 71.91052246 C-14.54011372 70.98174664 -14.54543739 70.05297081 -14.55092239 69.09605026 C-14.57763621 64.18200252 -14.59701857 59.26798005 -14.6114502 54.35388184 C-14.62480291 50.28561994 -14.65268235 46.21785803 -14.69348145 42.14978027 C-14.7427425 37.23794795 -14.76756285 32.32657001 -14.77467728 27.41450119 C-14.78139713 25.54297298 -14.79663825 23.67145519 -14.82056808 21.8000679 C-14.85215463 19.18091048 -14.85226688 16.5635114 -14.84484863 13.94421387 C-14.86125397 13.17209061 -14.8776593 12.39996735 -14.89456177 11.60444641 C-14.85220158 7.94949583 -14.4654652 5.90266777 -12.30218697 2.92230034 C-8.13017988 -0.23443923 -5.0997471 -0.07312031 0 0 Z " fill="#000000" transform="translate(54.2613525390625,375.3785400390625)"/>
<path d="M0 0 C3.14565046 -0.08845016 6.29097375 -0.14086835 9.4375 -0.1875 C10.31599609 -0.21263672 11.19449219 -0.23777344 12.09960938 -0.26367188 C19.0933716 -0.3410936 25.38101678 0.53958972 31.26953125 4.54296875 C31.77871094 5.08566406 32.28789062 5.62835938 32.8125 6.1875 C33.33457031 6.71730469 33.85664063 7.24710938 34.39453125 7.79296875 C40.46119854 16.13279118 40.55512597 23.45761622 40.45410156 33.41210938 C40.45287483 34.99502778 40.45341257 36.57794837 40.45556259 38.16086578 C40.45646213 42.38304663 40.43335359 46.60476997 40.40512085 50.82684326 C40.38226635 54.7950579 40.38126436 58.76316375 40.37841797 62.73144531 C40.35746544 74.32102365 40.30162048 85.91051768 40.25 97.5 C40.1675 123.405 40.085 149.31 40 176 C-60.32 176 -160.64 176 -264 176 C-264 170.39 -264 164.78 -264 159 C-261.56625 159.5775 -259.1325 160.155 -256.625 160.75 C-213.28558141 170.43315797 -167.40994207 170.29943841 -125.2890625 155.13671875 C-122 154 -122 154 -120 154 C-120 150.37 -120 146.74 -120 143 C-120.804375 142.79375 -121.60875 142.5875 -122.4375 142.375 C-131.04426457 139.05309087 -136.77007143 134.22938026 -141 126 C-143.11851751 121.06481716 -144 117.43612347 -144 112 C-138.72 112 -133.44 112 -128 112 C-127.62875 113.381875 -127.2575 114.76375 -126.875 116.1875 C-125.24995958 121.12482376 -123.25510867 123.10290473 -119 126 C-115.54155176 127.72922412 -111.78834735 127.35136443 -108 127 C-102.64244904 125.07936852 -99.54162784 122.08325568 -97 117 C-96.45021931 111.9888842 -96.43845487 108.10303507 -98.75 103.5625 C-102.18528649 99.65009038 -105.02065819 97.21978751 -110.3828125 96.82421875 C-111.28773438 96.77910156 -112.19265625 96.73398438 -113.125 96.6875 C-121.89501052 95.92489039 -129.71312461 92.22069775 -136 86 C-142.71578524 76.85700192 -145.08666484 68.30131429 -144 57 C-143.10750562 53.67343004 -141.78574164 50.93531281 -140 48 C-139.5875 47.30132812 -139.175 46.60265625 -138.75 45.8828125 C-134.26561436 39.13075458 -127.82841014 34.95710253 -120 33 C-120 27.39 -120 21.78 -120 16 C-114.72 16 -109.44 16 -104 16 C-103.67 21.61 -103.34 27.22 -103 33 C-101.453125 33.7425 -99.90625 34.485 -98.3125 35.25 C-89.60705001 39.65782278 -84.56835133 45.16283788 -80.625 54.125 C-80 57 -80 57 -80 64 C-85.28 64 -90.56 64 -96 64 C-96.37125 62.618125 -96.7425 61.23625 -97.125 59.8125 C-98.76032915 54.86757613 -100.69869074 52.8675395 -105 50 C-110.36950705 48.21016432 -115.19735333 48.11568276 -120.3125 50.625 C-123.82504268 53.72910749 -126.58118706 56.37888982 -127.34765625 61.17578125 C-127.54020605 66.15696087 -126.84263704 69.78505543 -124 74 C-119.92045358 77.68154189 -117.52787218 79.03075301 -112.125 79.25 C-102.65935434 80.05743697 -93.35284555 83.74688489 -87 91 C-80.72118812 99.37734527 -78.8472776 107.59021096 -80 118 C-83.1352682 128.9475274 -87.91538971 135.13793842 -97.6953125 140.80078125 C-100 142 -100 142 -103 143 C-103.73323796 145.01508358 -103.73323796 145.01508358 -104 147 C-86.5994428 138.31748743 -70.71180577 128.7938222 -56 116 C-55.03707031 115.17113281 -54.07414063 114.34226562 -53.08203125 113.48828125 C-23.86971046 87.85278571 -5.00643948 51.92534453 -1.3125 13.25 C-1.18294922 11.96867187 -1.05339844 10.68734375 -0.91992188 9.3671875 C-0.60542202 6.24548525 -0.29892992 3.12322491 0 0 Z " fill="#C7E1FA" transform="translate(288,24)"/>
<path d="M0 0 C100.32 0 200.64 0 304 0 C304 17.27184466 304 17.27184466 297.390625 24.84375 C290.23933305 31.53578467 282.39082128 32.44380911 272.9934082 32.38768005 C271.9059924 32.39306559 270.8185766 32.39845113 269.69820881 32.40399987 C266.06561681 32.41827237 262.43338957 32.41117726 258.80078125 32.40405273 C256.19192207 32.4097566 253.58306539 32.41672092 250.97421265 32.42485046 C244.63053666 32.4420163 238.28695981 32.44288321 231.94326663 32.43763756 C226.78619302 32.43359099 221.62914864 32.43504519 216.47207642 32.44038582 C215.73722403 32.44113424 215.00237164 32.44188266 214.245251 32.44265376 C212.75226712 32.44418528 211.25928324 32.44572363 209.76629937 32.44726873 C195.77682315 32.4609854 181.78740291 32.45556163 167.79792798 32.44408352 C155.00652961 32.4341489 142.21527584 32.44709719 129.42389977 32.47101771 C116.27928858 32.49541305 103.13474473 32.50501571 89.99011135 32.49836498 C82.61450939 32.49487412 75.23901866 32.49709616 67.86343384 32.51461601 C60.92929253 32.5308835 53.99543197 32.52614965 47.06129837 32.50731087 C44.51681191 32.50362013 41.97230505 32.50674747 39.42783737 32.51719666 C35.95376904 32.53037405 32.48062051 32.51888649 29.0065918 32.50120544 C28.00035924 32.51081045 26.99412668 32.52041546 25.95740223 32.53031152 C18.49531003 32.45220054 13.19583919 30.79001834 7.5390625 25.8515625 C6.90742188 25.11679688 6.27578125 24.38203125 5.625 23.625 C4.97789063 22.89539063 4.33078125 22.16578125 3.6640625 21.4140625 C-1.20240065 14.35426385 0 8.80349345 0 0 Z " fill="#87919E" transform="translate(24,216)"/>
<path d="M0 0 C11.55 0 23.1 0 35 0 C36.52625 2.908125 38.0525 5.81625 39.625 8.8125 C40.99600939 11.41545989 42.36922326 14.01723895 43.74316406 16.61865234 C44.50708957 18.06607452 45.26979409 19.51414314 46.03027344 20.96337891 C46.84796154 22.52018247 47.67354735 24.07283146 48.5 25.625 C48.9434375 26.46289062 49.386875 27.30078125 49.84375 28.1640625 C50.87516419 30.15363036 50.87516419 30.15363036 53 31 C54.34666227 31.09558538 55.69789629 31.13064614 57.04794312 31.13371277 C58.31814049 31.14011024 58.31814049 31.14011024 59.61399841 31.14663696 C60.54494827 31.14618378 61.47589813 31.14573059 62.43505859 31.14526367 C63.4140361 31.14862228 64.39301361 31.1519809 65.4016571 31.15544128 C68.65059667 31.16497069 71.89948481 31.16689543 75.1484375 31.16796875 C77.40044171 31.17118008 79.6524457 31.17454406 81.90444946 31.17805481 C86.6306405 31.18405116 91.35681324 31.1858942 96.08300781 31.18530273 C102.14498836 31.18520111 108.20685177 31.19885104 114.26880455 31.21607494 C118.92187033 31.22718316 123.5749077 31.2292223 128.22798538 31.22869301 C130.46313506 31.22987499 132.69828542 31.23430894 134.93342209 31.24202538 C138.05774937 31.25180088 141.18182112 31.24895674 144.30615234 31.24291992 C145.23305374 31.24853943 146.15995514 31.25415894 147.11494446 31.25994873 C148.3936013 31.253657 148.3936013 31.253657 149.6980896 31.24723816 C150.43661352 31.24778293 151.17513744 31.24832769 151.93604088 31.24888897 C154.36823666 30.95559503 155.93033948 30.30379641 158 29 C159.82757863 26.15805459 159.82757863 26.15805459 161.41796875 22.71484375 C161.72068192 22.09855606 162.02339508 21.48226837 162.33528137 20.8473053 C163.29751322 18.88272982 164.24290033 16.91060498 165.1875 14.9375 C166.14624149 12.96266052 167.10832514 10.98949082 168.07185364 9.01698303 C168.94190909 7.23147501 169.80355082 5.44187446 170.66479492 3.65209961 C172 1 172 1 173 0 C175.59334148 -0.0885067 178.16062579 -0.1153317 180.75390625 -0.09765625 C181.44093628 -0.09664917 182.12796631 -0.09564209 182.83581543 -0.09460449 C185.41139384 -0.08935776 187.98694853 -0.07539659 190.5625 -0.0625 C196.316875 -0.041875 202.07125 -0.02125 208 0 C208 21.12 208 42.24 208 64 C139.36 64 70.72 64 0 64 C0 42.88 0 21.76 0 0 Z " fill="#EAF6FD" transform="translate(56,392)"/>
<path d="M0 0 C36.96 0 73.92 0 112 0 C112 21.12 112 42.24 112 64 C75.04 64 38.08 64 0 64 C0 42.88 0 21.76 0 0 Z " fill="#88929F" transform="translate(360,280)"/>
<path d="M0 0 C3.24095065 1.41920753 5.35835505 3.13308248 7.8203125 5.66015625 C8.52027344 6.37107422 9.22023438 7.08199219 9.94140625 7.81445312 C10.66199219 8.55630859 11.38257813 9.29816406 12.125 10.0625 C13.56287561 11.53473193 15.00287708 13.00489156 16.4453125 14.47265625 C17.07969238 15.12500244 17.71407227 15.77734863 18.36767578 16.44946289 C20.46703568 18.443635 21.76712939 18.95564369 24.625 19.5 C29.01518544 18.84960216 30.83160897 16.92803068 33.97265625 13.921875 C36.19576402 11.81442024 38.60799429 9.91360457 41 8 C41 27.8 41 47.6 41 68 C14.6 68 -11.8 68 -39 68 C-39 48.2 -39 28.4 -39 8 C-32 14 -32 14 -28.9375 16.875 C-26.18346369 19.13772053 -26.18346369 19.13772053 -23.125 19.75 C-18.214008 18.57136192 -15.52101766 15.50358688 -12 12 C-11.49500977 11.50193848 -10.99001953 11.00387695 -10.46972656 10.49072266 C-6.95253467 7.02038501 -3.46771952 3.51973531 0 0 Z " fill="#C6E1FA" transform="translate(415,196)"/>
<path d="M0 0 C5.28 0 10.56 0 16 0 C16.495 8.415 16.495 8.415 17 17 C18.546875 17.7425 20.09375 18.485 21.6875 19.25 C30.39294999 23.65782278 35.43164867 29.16283788 39.375 38.125 C40 41 40 41 40 48 C34.72 48 29.44 48 24 48 C23.62875 46.618125 23.2575 45.23625 22.875 43.8125 C21.23967085 38.86757613 19.30130926 36.8675395 15 34 C9.63049295 32.21016432 4.80264667 32.11568276 -0.3125 34.625 C-3.82504268 37.72910749 -6.58118706 40.37888982 -7.34765625 45.17578125 C-7.54020605 50.15696087 -6.84263704 53.78505543 -4 58 C0.07954642 61.68154189 2.47212782 63.03075301 7.875 63.25 C17.34064566 64.05743697 26.64715445 67.74688489 33 75 C39.27881188 83.37734527 41.1527224 91.59021096 40 102 C36.8647318 112.9475274 32.08461029 119.13793842 22.3046875 124.80078125 C20 126 20 126 17 127 C16.67 132.61 16.34 138.22 16 144 C10.72 144 5.44 144 0 144 C0 138.39 0 132.78 0 127 C-1.98 126.34 -3.96 125.68 -6 125 C-14.63993568 120.6080327 -19.62067652 114.30485375 -22.875 105.25 C-23.97857501 101.82511205 -24 99.82550199 -24 96 C-18.72 96 -13.44 96 -8 96 C-7.62875 97.381875 -7.2575 98.76375 -6.875 100.1875 C-5.24995958 105.12482376 -3.25510867 107.10290473 1 110 C4.45844824 111.72922412 8.21165265 111.35136443 12 111 C17.35755096 109.07936852 20.45837216 106.08325568 23 101 C23.54978069 95.9888842 23.56154513 92.10303507 21.25 87.5625 C17.81471351 83.65009038 14.97934181 81.21978751 9.6171875 80.82421875 C8.71226562 80.77910156 7.80734375 80.73398438 6.875 80.6875 C-1.89501052 79.92489039 -9.71312461 76.22069775 -16 70 C-22.71578524 60.85700192 -25.08666484 52.30131429 -24 41 C-23.10750562 37.67343004 -21.78574164 34.93531281 -20 32 C-19.5875 31.30132812 -19.175 30.60265625 -18.75 29.8828125 C-14.26561436 23.13075458 -7.82841014 18.95710253 0 17 C0 11.39 0 5.78 0 0 Z " fill="#020202" transform="translate(168,40)"/>
<path d="M0 0 C31.68 0 63.36 0 96 0 C73.48417864 26.26845825 46.44133016 43.05846787 13 52 C12.30358398 52.19271484 11.60716797 52.38542969 10.88964844 52.58398438 C7.03755357 53.61241251 4.04844184 54 0 54 C0 36.18 0 18.36 0 0 Z " fill="#9FA7B1" transform="translate(360,280)"/>
<path d="M0 0 C21.12 0 42.24 0 64 0 C64 15.84 64 31.68 64 48 C42.88 48 21.76 48 0 48 C0 32.16 0 16.32 0 0 Z " fill="#A0A8B2" transform="translate(144,264)"/>
<path d="M0 0 C58.08 0 116.16 0 176 0 C176 5.28 176 10.56 176 16 C117.92 16 59.84 16 0 16 C0 10.72 0 5.44 0 0 Z " fill="#000000" transform="translate(296,456)"/>
<path d="M0 0 C0.80232056 -0.00004028 1.60464111 -0.00008057 2.43127441 -0.00012207 C4.12239443 0.00522359 5.8135146 0.02276578 7.50439453 0.05175781 C10.08573724 0.09362006 12.66446867 0.09282315 15.24609375 0.0859375 C16.89324721 0.09643096 18.54038728 0.10936992 20.1875 0.125 C21.3392572 0.12530212 21.3392572 0.12530212 22.51428223 0.12561035 C27.02599744 0.22473308 30.01087988 0.78722566 33.59375 3.59375 C35.18381531 6.77388063 34.77792077 10.21345657 34.796875 13.70703125 C34.80257507 14.51359665 34.80827515 15.32016205 34.81414795 16.15116882 C34.82360195 17.86012458 34.83013352 19.5690986 34.83398438 21.27807617 C34.8436732 23.88558041 34.874685 26.49229078 34.90625 29.09960938 C34.91278185 30.76041199 34.91803161 32.42122024 34.921875 34.08203125 C34.9342218 34.85928055 34.9465686 35.63652985 34.95928955 36.43733215 C34.94069428 40.98490483 34.51725081 44.03271364 31.59375 47.59375 C27.8240619 48.8503127 24.27657257 48.77550362 20.34765625 48.796875 C19.13637306 48.80542511 19.13637306 48.80542511 17.90061951 48.81414795 C16.19344388 48.82358834 14.48625011 48.83012812 12.77905273 48.83398438 C10.16943625 48.8437009 7.56060393 48.8747369 4.95117188 48.90625 C3.29167134 48.91277933 1.63216518 48.91803007 -0.02734375 48.921875 C-0.80661728 48.9342218 -1.58589081 48.9465686 -2.38877869 48.95928955 C-5.62902164 48.94598287 -7.99008795 48.81914875 -10.86743164 47.26074219 C-15.32042454 42.43684317 -13.7127961 33.07245058 -13.75634766 26.83398438 C-13.77291642 25.09393955 -13.80021889 23.35396305 -13.83837891 21.61425781 C-13.89321881 19.09925214 -13.9150286 16.58583593 -13.9296875 14.0703125 C-13.95235687 13.29620026 -13.97502625 12.52208801 -13.99838257 11.72451782 C-13.98351021 7.91146608 -13.53704249 5.78874566 -11.39892578 2.60107422 C-7.57414985 0.03562245 -4.45403041 -0.09510468 0 0 Z " fill="#000000" transform="translate(437.40625,375.40625)"/>
<path d="M0 0 C0.80232056 -0.00004028 1.60464111 -0.00008057 2.43127441 -0.00012207 C4.12239443 0.00522359 5.8135146 0.02276578 7.50439453 0.05175781 C10.08573724 0.09362006 12.66446867 0.09282315 15.24609375 0.0859375 C16.89324721 0.09643096 18.54038728 0.10936992 20.1875 0.125 C21.3392572 0.12530212 21.3392572 0.12530212 22.51428223 0.12561035 C27.02599744 0.22473308 30.01087988 0.78722566 33.59375 3.59375 C35.18381531 6.77388063 34.77792077 10.21345657 34.796875 13.70703125 C34.80257507 14.51359665 34.80827515 15.32016205 34.81414795 16.15116882 C34.82360195 17.86012458 34.83013352 19.5690986 34.83398438 21.27807617 C34.8436732 23.88558041 34.874685 26.49229078 34.90625 29.09960938 C34.91278185 30.76041199 34.91803161 32.42122024 34.921875 34.08203125 C34.9342218 34.85928055 34.9465686 35.63652985 34.95928955 36.43733215 C34.94069428 40.98490483 34.51725081 44.03271364 31.59375 47.59375 C27.8240619 48.8503127 24.27657257 48.77550362 20.34765625 48.796875 C19.13637306 48.80542511 19.13637306 48.80542511 17.90061951 48.81414795 C16.19344388 48.82358834 14.48625011 48.83012812 12.77905273 48.83398438 C10.16943625 48.8437009 7.56060393 48.8747369 4.95117188 48.90625 C3.29167134 48.91277933 1.63216518 48.91803007 -0.02734375 48.921875 C-0.80661728 48.9342218 -1.58589081 48.9465686 -2.38877869 48.95928955 C-5.62902164 48.94598287 -7.99008795 48.81914875 -10.86743164 47.26074219 C-15.32042454 42.43684317 -13.7127961 33.07245058 -13.75634766 26.83398438 C-13.77291642 25.09393955 -13.80021889 23.35396305 -13.83837891 21.61425781 C-13.89321881 19.09925214 -13.9150286 16.58583593 -13.9296875 14.0703125 C-13.95235687 13.29620026 -13.97502625 12.52208801 -13.99838257 11.72451782 C-13.98351021 7.91146608 -13.53704249 5.78874566 -11.39892578 2.60107422 C-7.57414985 0.03562245 -4.45403041 -0.09510468 0 0 Z " fill="#000000" transform="translate(373.40625,375.40625)"/>
<path d="M0 0 C0.80232056 -0.00004028 1.60464111 -0.00008057 2.43127441 -0.00012207 C4.12239443 0.00522359 5.8135146 0.02276578 7.50439453 0.05175781 C10.08573724 0.09362006 12.66446867 0.09282315 15.24609375 0.0859375 C16.89324721 0.09643096 18.54038728 0.10936992 20.1875 0.125 C21.3392572 0.12530212 21.3392572 0.12530212 22.51428223 0.12561035 C27.02599744 0.22473308 30.01087988 0.78722566 33.59375 3.59375 C35.18381531 6.77388063 34.77792077 10.21345657 34.796875 13.70703125 C34.80257507 14.51359665 34.80827515 15.32016205 34.81414795 16.15116882 C34.82360195 17.86012458 34.83013352 19.5690986 34.83398438 21.27807617 C34.8436732 23.88558041 34.874685 26.49229078 34.90625 29.09960938 C34.91278185 30.76041199 34.91803161 32.42122024 34.921875 34.08203125 C34.9342218 34.85928055 34.9465686 35.63652985 34.95928955 36.43733215 C34.94069428 40.98490483 34.51725081 44.03271364 31.59375 47.59375 C27.8240619 48.8503127 24.27657257 48.77550362 20.34765625 48.796875 C19.13637306 48.80542511 19.13637306 48.80542511 17.90061951 48.81414795 C16.19344388 48.82358834 14.48625011 48.83012812 12.77905273 48.83398438 C10.16943625 48.8437009 7.56060393 48.8747369 4.95117188 48.90625 C3.29167134 48.91277933 1.63216518 48.91803007 -0.02734375 48.921875 C-0.80661728 48.9342218 -1.58589081 48.9465686 -2.38877869 48.95928955 C-5.62902164 48.94598287 -7.99008795 48.81914875 -10.86743164 47.26074219 C-15.32042454 42.43684317 -13.7127961 33.07245058 -13.75634766 26.83398438 C-13.77291642 25.09393955 -13.80021889 23.35396305 -13.83837891 21.61425781 C-13.89321881 19.09925214 -13.9150286 16.58583593 -13.9296875 14.0703125 C-13.95235687 13.29620026 -13.97502625 12.52208801 -13.99838257 11.72451782 C-13.98351021 7.91146608 -13.53704249 5.78874566 -11.39892578 2.60107422 C-7.57414985 0.03562245 -4.45403041 -0.09510468 0 0 Z " fill="#000000" transform="translate(309.40625,375.40625)"/>
<path d="M0 0 C1.70079964 -0.00832352 1.70079964 -0.00832352 3.43595886 -0.01681519 C7.18364735 -0.02862501 10.93013045 -0.00432053 14.67773438 0.02148438 C17.28177841 0.02319516 19.88582417 0.02313013 22.48986816 0.0213623 C27.94733302 0.02141584 33.40445119 0.04114814 38.86181641 0.07324219 C45.16545045 0.11013354 51.46863051 0.11891739 57.77235842 0.11194468 C63.84380714 0.10563272 69.91507565 0.11662028 75.98649597 0.13591003 C78.56690207 0.14294482 81.14732188 0.14606399 83.72773743 0.1452179 C87.33306708 0.14701417 90.93775069 0.16838292 94.54296875 0.1953125 C95.61117355 0.1923819 96.67937836 0.18945129 97.779953 0.18643188 C106.90331966 0.29165284 106.90331966 0.29165284 110.77148438 3.61523438 C111.77148438 5.61523438 111.77148438 5.61523438 111.77148438 16.61523438 C69.53148437 16.61523438 27.29148437 16.61523438 -16.22851562 16.61523438 C-16.22851562 5.61523438 -16.22851562 5.61523438 -14.43029785 2.46618652 C-9.65863476 -0.29231466 -5.42358029 -0.06734127 0 0 Z " fill="#87919E" transform="translate(128.228515625,327.384765625)"/>
<path d="M0 0 C33.66 0 67.32 0 102 0 C99.36 5.28 96.72 10.56 94 16 C65.62 16 37.24 16 8 16 C5.36 10.72 2.72 5.44 0 0 Z " fill="#C6E1FA" transform="translate(109,392)"/>
<path d="M0 0 C5.28 0 10.56 0 16 0 C16 21.12 16 42.24 16 64 C10.72 64 5.44 64 0 64 C0 42.88 0 21.76 0 0 Z " fill="#000000" transform="translate(392,96)"/>
<path d="M0 0 C5.28 0 10.56 0 16 0 C16 18.48 16 36.96 16 56 C10.72 56 5.44 56 0 56 C0 37.52 0 19.04 0 0 Z " fill="#000000" transform="translate(424,80)"/>
<path d="M0 0 C15.84 0 31.68 0 48 0 C48 5.28 48 10.56 48 16 C32.16 16 16.32 16 0 16 C0 10.72 0 5.44 0 0 Z " fill="#000000" transform="translate(392,232)"/>
<path d="M0 0 C5.28 0 10.56 0 16 0 C16 5.28 16 10.56 16 16 C10.72 16 5.44 16 0 16 C0 10.72 0 5.44 0 0 Z " fill="#3C98F4" transform="translate(440,392)"/>
<path d="M0 0 C5.28 0 10.56 0 16 0 C16 5.28 16 10.56 16 16 C10.72 16 5.44 16 0 16 C0 10.72 0 5.44 0 0 Z " fill="#3C98F4" transform="translate(376,392)"/>
<path d="M0 0 C5.28 0 10.56 0 16 0 C16 5.28 16 10.56 16 16 C10.72 16 5.44 16 0 16 C0 10.72 0 5.44 0 0 Z " fill="#3C98F4" transform="translate(312,392)"/>
<path d="M0 0 C5.28 0 10.56 0 16 0 C16 5.28 16 10.56 16 16 C10.72 16 5.44 16 0 16 C0 10.72 0 5.44 0 0 Z " fill="#000000" transform="translate(440,296)"/>
</svg>
